<svg
        width="172"
        height="22"
        viewBox="0 0 172 22"
        fill="none"
        xmlns="http://www.w3.org/2000/svg"
      >
        <path
          d="M37.623 10.1178C37.623 8.97361 37.8558 7.9758 38.3215 7.12434C38.7871 6.25958 39.4324 5.59437 40.2572 5.12873C41.0821 4.64978 42.0267 4.41031 43.091 4.41031C44.4613 4.41031 45.5922 4.75621 46.4835 5.44803C47.3882 6.12654 47.9936 7.08443 48.2996 8.32171H45.2862C45.1265 7.84276 44.8538 7.47025 44.468 7.20417C44.0955 6.92478 43.6298 6.78509 43.071 6.78509C42.2728 6.78509 41.6409 7.07778 41.1752 7.66316C40.7096 8.23523 40.4767 9.05344 40.4767 10.1178C40.4767 11.1688 40.7096 11.987 41.1752 12.5724C41.6409 13.1444 42.2728 13.4305 43.071 13.4305C44.2019 13.4305 44.9403 12.9249 45.2862 11.9138H48.2996C47.9936 13.1112 47.3882 14.0624 46.4835 14.7675C45.5789 15.4727 44.448 15.8252 43.091 15.8252C42.0267 15.8252 41.0821 15.5924 40.2572 15.1268C39.4324 14.6478 38.7871 13.9826 38.3215 13.1311C37.8558 12.2664 37.623 11.2619 37.623 10.1178Z"
          fill="#090F31"
        />
        <path
          d="M56.5726 4.43026C57.4108 4.43026 58.1558 4.61652 58.8077 4.98904C59.4596 5.34825 59.9652 5.88706 60.3244 6.60548C60.6969 7.3106 60.8831 8.16206 60.8831 9.15987V15.6456H58.0893V9.53904C58.0893 8.66097 57.8698 7.98911 57.4307 7.52347C56.9917 7.04452 56.393 6.80504 55.6347 6.80504C54.863 6.80504 54.2511 7.04452 53.7987 7.52347C53.3597 7.98911 53.1402 8.66097 53.1402 9.53904V15.6456H50.3463V0.878071H53.1402V5.96689C53.4994 5.48794 53.9783 5.11542 54.577 4.84934C55.1757 4.56996 55.8409 4.43026 56.5726 4.43026Z"
          fill="#090F31"
        />
        <path
          d="M62.8215 10.0779C62.8215 8.96031 63.0411 7.96915 63.4801 7.10439C63.9324 6.23962 64.5378 5.57442 65.2961 5.10877C66.0677 4.64313 66.9259 4.41031 67.8704 4.41031C68.6953 4.41031 69.4137 4.57661 70.0257 4.90921C70.651 5.24181 71.1499 5.66089 71.5224 6.16645V4.58991H74.3362V15.6456H71.5224V14.0292C71.1632 14.548 70.6643 14.9804 70.0257 15.3263C69.4004 15.6589 68.6753 15.8252 67.8505 15.8252C66.9192 15.8252 66.0677 15.5857 65.2961 15.1068C64.5378 14.6279 63.9324 13.956 63.4801 13.0912C63.0411 12.2132 62.8215 11.2087 62.8215 10.0779ZM71.5224 10.1178C71.5224 9.43925 71.3894 8.86053 71.1233 8.38158C70.8572 7.88933 70.498 7.51681 70.0457 7.26404C69.5933 6.99795 69.1077 6.86491 68.5889 6.86491C68.07 6.86491 67.5911 6.9913 67.152 7.24408C66.713 7.49686 66.3538 7.86937 66.0744 8.36162C65.8083 8.84057 65.6753 9.41265 65.6753 10.0779C65.6753 10.7431 65.8083 11.3284 66.0744 11.834C66.3538 12.3262 66.713 12.7054 67.152 12.9715C67.6044 13.2376 68.0833 13.3706 68.5889 13.3706C69.1077 13.3706 69.5933 13.2442 70.0457 12.9914C70.498 12.7254 70.8572 12.3529 71.1233 11.8739C71.3894 11.3817 71.5224 10.7963 71.5224 10.1178Z"
          fill="#090F31"
        />
        <path d="M79.8588 0.878071V15.6456H77.0649V0.878071H79.8588Z" fill="#090F31" />
        <path d="M85.413 0.878071V15.6456H82.6191V0.878071H85.413Z" fill="#090F31" />
        <path
          d="M98.4507 9.87829C98.4507 10.2774 98.4241 10.6366 98.3709 10.9559H90.2887C90.3552 11.7542 90.6346 12.3795 91.1268 12.8318C91.6191 13.2841 92.2244 13.5103 92.9428 13.5103C93.9806 13.5103 94.7189 13.0646 95.158 12.1732H98.1714C97.8521 13.2376 97.2401 14.1156 96.3354 14.8075C95.4307 15.486 94.3198 15.8252 93.0027 15.8252C91.9384 15.8252 90.9805 15.5924 90.129 15.1268C89.2909 14.6478 88.6323 13.976 88.1534 13.1112C87.6877 12.2464 87.4549 11.2486 87.4549 10.1178C87.4549 8.97361 87.6877 7.96915 88.1534 7.10439C88.619 6.23962 89.2709 5.57442 90.1091 5.10877C90.9472 4.64313 91.9118 4.41031 93.0027 4.41031C94.0537 4.41031 94.9917 4.63648 95.8165 5.08882C96.6547 5.54116 97.2999 6.1864 97.7523 7.02456C98.2179 7.84942 98.4507 8.80066 98.4507 9.87829ZM95.5571 9.08004C95.5438 8.36162 95.2844 7.78955 94.7788 7.36382C94.2732 6.92478 93.6546 6.70526 92.9229 6.70526C92.2311 6.70526 91.6457 6.91813 91.1667 7.34386C90.7011 7.75629 90.4151 8.33501 90.3086 9.08004H95.5571Z"
          fill="#090F31"
        />
        <path
          d="M106.617 4.43026C107.934 4.43026 108.998 4.84934 109.81 5.6875C110.621 6.51235 111.027 7.66981 111.027 9.15987V15.6456H108.233V9.53904C108.233 8.66097 108.013 7.98911 107.574 7.52347C107.135 7.04452 106.537 6.80504 105.778 6.80504C105.007 6.80504 104.395 7.04452 103.942 7.52347C103.503 7.98911 103.284 8.66097 103.284 9.53904V15.6456H100.49V4.58991H103.284V5.96689C103.656 5.48794 104.129 5.11542 104.701 4.84934C105.286 4.56996 105.925 4.43026 106.617 4.43026Z"
          fill="#090F31"
        />
        <path
          d="M118.014 4.41031C118.839 4.41031 119.564 4.57661 120.189 4.90921C120.815 5.22851 121.307 5.64759 121.666 6.16645V4.58991H124.48V15.7254C124.48 16.7499 124.274 17.6612 123.861 18.4594C123.449 19.271 122.83 19.9096 122.005 20.3752C121.181 20.8542 120.183 21.0936 119.012 21.0936C117.442 21.0936 116.152 20.7278 115.14 19.9961C114.143 19.2643 113.577 18.2665 113.444 17.0026H116.218C116.364 17.5082 116.677 17.9073 117.156 18.2C117.648 18.506 118.24 18.659 118.932 18.659C119.744 18.659 120.402 18.4129 120.908 17.9206C121.413 17.4417 121.666 16.7099 121.666 15.7254V14.0092C121.307 14.5281 120.808 14.9605 120.169 15.3064C119.544 15.6523 118.826 15.8252 118.014 15.8252C117.083 15.8252 116.231 15.5857 115.46 15.1068C114.688 14.6279 114.076 13.956 113.624 13.0912C113.185 12.2132 112.965 11.2087 112.965 10.0779C112.965 8.96031 113.185 7.96915 113.624 7.10439C114.076 6.23962 114.681 5.57442 115.44 5.10877C116.211 4.64313 117.07 4.41031 118.014 4.41031ZM121.666 10.1178C121.666 9.43925 121.533 8.86053 121.267 8.38158C121.001 7.88933 120.642 7.51681 120.189 7.26404C119.737 6.99795 119.251 6.86491 118.733 6.86491C118.214 6.86491 117.735 6.9913 117.296 7.24408C116.857 7.49686 116.497 7.86937 116.218 8.36162C115.952 8.84057 115.819 9.41265 115.819 10.0779C115.819 10.7431 115.952 11.3284 116.218 11.834C116.497 12.3262 116.857 12.7054 117.296 12.9715C117.748 13.2376 118.227 13.3706 118.733 13.3706C119.251 13.3706 119.737 13.2442 120.189 12.9914C120.642 12.7254 121.001 12.3529 121.267 11.8739C121.533 11.3817 121.666 10.7963 121.666 10.1178Z"
          fill="#090F31"
        />
        <path
          d="M137.486 9.87829C137.486 10.2774 137.459 10.6366 137.406 10.9559H129.324C129.39 11.7542 129.67 12.3795 130.162 12.8318C130.654 13.2841 131.26 13.5103 131.978 13.5103C133.016 13.5103 133.754 13.0646 134.193 12.1732H137.207C136.887 13.2376 136.275 14.1156 135.371 14.8075C134.466 15.486 133.355 15.8252 132.038 15.8252C130.974 15.8252 130.016 15.5924 129.164 15.1268C128.326 14.6478 127.668 13.976 127.189 13.1112C126.723 12.2464 126.49 11.2486 126.49 10.1178C126.49 8.97361 126.723 7.96915 127.189 7.10439C127.654 6.23962 128.306 5.57442 129.144 5.10877C129.983 4.64313 130.947 4.41031 132.038 4.41031C133.089 4.41031 134.027 4.63648 134.852 5.08882C135.69 5.54116 136.335 6.1864 136.788 7.02456C137.253 7.84942 137.486 8.80066 137.486 9.87829ZM134.592 9.08004C134.579 8.36162 134.32 7.78955 133.814 7.36382C133.309 6.92478 132.69 6.70526 131.958 6.70526C131.266 6.70526 130.681 6.91813 130.202 7.34386C129.736 7.75629 129.45 8.33501 129.344 9.08004H134.592Z"
          fill="#090F31"
        />
        <path
          d="M143.756 15.8252C142.851 15.8252 142.04 15.6656 141.321 15.3463C140.603 15.0137 140.031 14.568 139.605 14.0092C139.193 13.4504 138.967 12.8318 138.927 12.1533H141.74C141.794 12.579 142 12.9316 142.359 13.211C142.732 13.4904 143.191 13.63 143.736 13.63C144.268 13.63 144.681 13.5236 144.973 13.3107C145.279 13.0979 145.432 12.8251 145.432 12.4925C145.432 12.1333 145.246 11.8673 144.874 11.6943C144.514 11.508 143.936 11.3085 143.137 11.0956C142.313 10.8961 141.634 10.6898 141.102 10.477C140.583 10.2641 140.131 9.93816 139.745 9.49912C139.372 9.06009 139.186 8.46806 139.186 7.72303C139.186 7.11104 139.359 6.55227 139.705 6.04671C140.064 5.54115 140.57 5.14203 141.222 4.84934C141.887 4.55665 142.665 4.41031 143.556 4.41031C144.874 4.41031 145.925 4.74291 146.71 5.40811C147.494 6.06001 147.927 6.94474 148.007 8.06228H145.333C145.293 7.62325 145.106 7.27734 144.774 7.02456C144.454 6.75848 144.022 6.62544 143.477 6.62544C142.971 6.62544 142.579 6.71857 142.299 6.90482C142.033 7.09108 141.9 7.35051 141.9 7.68311C141.9 8.05563 142.086 8.34167 142.459 8.54123C142.831 8.72749 143.41 8.9204 144.195 9.11996C144.993 9.31952 145.652 9.52573 146.171 9.7386C146.69 9.95146 147.135 10.2841 147.508 10.7364C147.894 11.1754 148.093 11.7608 148.106 12.4925C148.106 13.1311 147.927 13.7032 147.568 14.2088C147.222 14.7143 146.716 15.1135 146.051 15.4061C145.399 15.6855 144.634 15.8252 143.756 15.8252Z"
          fill="#090F31"
        />
        <path
          d="M151.637 15.7853C151.132 15.7853 150.712 15.6323 150.38 15.3263C150.061 15.007 149.901 14.6145 149.901 14.1489C149.901 13.6833 150.061 13.2974 150.38 12.9914C150.712 12.6722 151.132 12.5125 151.637 12.5125C152.129 12.5125 152.535 12.6722 152.854 12.9914C153.174 13.2974 153.333 13.6833 153.333 14.1489C153.333 14.6145 153.174 15.007 152.854 15.3263C152.535 15.6323 152.129 15.7853 151.637 15.7853Z"
          fill="#090F31"
        />
        <path
          d="M157.001 3.27281C156.508 3.27281 156.096 3.11981 155.763 2.81382C155.444 2.49452 155.284 2.10205 155.284 1.6364C155.284 1.17076 155.444 0.784941 155.763 0.478947C156.096 0.159649 156.508 0 157.001 0C157.493 0 157.899 0.159649 158.218 0.478947C158.551 0.784941 158.717 1.17076 158.717 1.6364C158.717 2.10205 158.551 2.49452 158.218 2.81382C157.899 3.11981 157.493 3.27281 157.001 3.27281ZM158.378 4.58991V15.6456H155.584V4.58991H158.378Z"
          fill="#090F31"
        />
        <path
          d="M166.047 15.8252C164.983 15.8252 164.025 15.5924 163.173 15.1268C162.322 14.6478 161.65 13.976 161.158 13.1112C160.679 12.2464 160.439 11.2486 160.439 10.1178C160.439 8.98692 160.686 7.98911 161.178 7.12434C161.683 6.25958 162.369 5.59437 163.233 5.12873C164.098 4.64978 165.063 4.41031 166.127 4.41031C167.191 4.41031 168.156 4.64978 169.021 5.12873C169.885 5.59437 170.564 6.25958 171.056 7.12434C171.562 7.98911 171.814 8.98692 171.814 10.1178C171.814 11.2486 171.555 12.2464 171.036 13.1112C170.531 13.976 169.839 14.6478 168.961 15.1268C168.096 15.5924 167.125 15.8252 166.047 15.8252ZM166.047 13.3906C166.553 13.3906 167.025 13.2708 167.464 13.0314C167.916 12.7786 168.276 12.4061 168.542 11.9138C168.808 11.4216 168.941 10.8229 168.941 10.1178C168.941 9.06674 168.661 8.26184 168.103 7.70307C167.557 7.13099 166.885 6.84496 166.087 6.84496C165.289 6.84496 164.617 7.13099 164.072 7.70307C163.539 8.26184 163.273 9.06674 163.273 10.1178C163.273 11.1688 163.533 11.9803 164.052 12.5524C164.584 13.1112 165.249 13.3906 166.047 13.3906Z"
          fill="#090F31"
        />
        <path
          d="M4.8693 1.71623C6.33275 1.71623 7.61659 2.00227 8.72083 2.57435C9.83838 3.14642 10.6965 3.96462 11.2952 5.02895C11.9072 6.07998 12.2132 7.30395 12.2132 8.70088C12.2132 10.0978 11.9072 11.3218 11.2952 12.3728C10.6965 13.4105 9.83838 14.2154 8.72083 14.7875C7.61659 15.3596 6.33275 15.6456 4.8693 15.6456H0V1.71623H4.8693ZM4.76952 13.2708C6.23297 13.2708 7.36382 12.8717 8.16206 12.0735C8.96031 11.2752 9.35943 10.151 9.35943 8.70088C9.35943 7.25074 8.96031 6.11989 8.16206 5.30834C7.36382 4.48348 6.23297 4.07106 4.76952 4.07106H2.79386V13.2708H4.76952Z"
          fill="#F7542E"
        />
        <path
          d="M24.5819 9.87829C24.5819 10.2774 24.5553 10.6366 24.5021 10.9559H16.4199C16.4864 11.7542 16.7658 12.3795 17.258 12.8318C17.7503 13.2841 18.3556 13.5103 19.074 13.5103C20.1117 13.5103 20.8501 13.0646 21.2891 12.1733H24.3025C23.9832 13.2376 23.3712 14.1156 22.4666 14.8075C21.5619 15.486 20.451 15.8252 19.1339 15.8252C18.0696 15.8252 17.1117 15.5924 16.2602 15.1268C15.422 14.6478 14.7635 13.976 14.2845 13.1112C13.8189 12.2464 13.5861 11.2486 13.5861 10.1178C13.5861 8.97362 13.8189 7.96916 14.2845 7.10439C14.7502 6.23962 15.4021 5.57442 16.2402 5.10878C17.0784 4.64313 18.043 4.41031 19.1339 4.41031C20.1849 4.41031 21.1228 4.63648 21.9477 5.08882C22.7859 5.54116 23.4311 6.18641 23.8834 7.02457C24.3491 7.84942 24.5819 8.80066 24.5819 9.87829ZM21.6883 9.08005C21.675 8.36163 21.4155 7.78955 20.91 7.36382C20.4044 6.92479 19.7858 6.70527 19.0541 6.70527C18.3622 6.70527 17.7769 6.91813 17.2979 7.34386C16.8323 7.75629 16.5462 8.33502 16.4398 9.08005H21.6883Z"
          fill="#F7542E"
        />
        <path
          d="M31.2311 13.0713L34.0249 4.58992H36.9984L32.9074 15.6456H29.5148L25.4438 4.58992H28.4372L31.2311 13.0713Z"
          fill="#F7542E"
        />
      </svg>